<?xml version="1.0" encoding="UTF-8"?>
<svg id="Layer_1" data-name="Layer 1" xmlns="http://www.w3.org/2000/svg" xmlns:xlink="http://www.w3.org/1999/xlink" viewBox="0 0 100 100">
  <defs>
    <style>
      .cls-1 {
        fill: #009345;
      }

      .cls-1, .cls-2, .cls-3 {
        stroke-width: 0px;
      }

      .cls-2 {
        fill: url(#linear-gradient);
      }

      .cls-3 {
        fill: #2b388f;
      }
    </style>
    <linearGradient id="linear-gradient" x1="35.04" y1="39.87" x2="66.15" y2="39.87" gradientUnits="userSpaceOnUse">
      <stop offset="0" stop-color="#edbc46"/>
      <stop offset=".33" stop-color="#eda44c"/>
      <stop offset="1" stop-color="#a16327"/>
    </linearGradient>
  </defs>
  <g>
    <polygon class="cls-3" points="44.33 26.06 39.68 27.77 39.68 32.98 35.04 34.67 35.04 49.57 42.67 49.57 48.05 58.63 48.05 29.92 44.33 31.28 44.33 26.06"/>
    <polygon class="cls-3" points="48.05 29.81 52.69 31.72 52.69 17.21 48.05 18.83 48.05 29.81"/>
    <polygon class="cls-3" points="59.37 40.95 59.37 25.49 57.15 26.29 57.16 37.88 52.96 39.41 52.97 59.38 58.71 49.57 62.12 49.57 62.12 40.01 59.37 40.95"/>
  </g>
  <g>
    <path class="cls-3" d="M87.69,76.05c7.65-11.3,8.91-25.14,4.48-37.12-6.4-15.89-21.59-27.44-39.82-28.3C27.4,9.45,6.23,28.71,5.05,53.65c-.49,10.46,2.61,20.25,8.21,28.18l1.91-3.56.23-.42c-4.39-6.92-6.77-15.2-6.36-24.01C10.11,31.1,29.42,13.54,52.15,14.61c22.74,1.07,40.3,20.38,39.23,43.12-.29,6.21-.95,10.25-3.65,15.41,3.27-5.54,4.76-10.17,5.09-17.04,1.04-21.99-19.12-42.8-39.03-43.08,20.84-.26,40.57,21.5,39.51,44.02-.33,6.94-2.33,13.4-5.6,19.02Z"/>
    <path class="cls-3" d="M94.47,48.89c1.15,9.66-.88,19.72-6.36,28.47,0,0,6.07-7.23,6.79-18.34.22-3.45.07-6.84-.43-10.13Z"/>
  </g>
  <path class="cls-2" d="M51.08,31.86l.96.39v28.39l-.96,1.57v-30.35ZM48.93,60.49l.96,1.63v-30.75l-.96-.39v29.51ZM53.47,17.54v20.62l.96-.36v-19.87l-.96-.39ZM45.01,30.24l.92-.33v-3.56l-.92-.33v4.23ZM46.57,29.72l.92-.32v-2.49l-.92-.33v3.15ZM55.38,18.32v19.13l.96-.35v-18.38l-.96-.39ZM63.27,49.53h.92v-8.93l-.92-.3v9.22ZM65.23,40.94v8.59h.92v-8.29l-.92-.3ZM57.3,25.47l.96-.36v-5.61l-.96-.39v6.36ZM60.06,40l.92-.31v-13.52l-.92-.42v14.25ZM61.77,39.4l.92-.31v-12.13l-.92-.42v12.86ZM41.55,44.73l-4.02,2.76,1.44-4.59-3.92-2.89,4.91-.08,1.6-4.54,1.6,4.54,4.91.08-3.92,2.89,1.44,4.59-4.02-2.76Z"/>
  <path class="cls-1" d="M68.23,89.43l-11.99-24.36-7.61,13.85-15.62-27.72h9.02l8.75,15.6,7.95-14.08,18.71,36.71h-9.2ZM60.3,51.2l19.45,38.23h9.49l-19.45-38.23h-9.49ZM30.24,51.15l-8.52,16.89-2.09,4.13-8.71,17.25h5.44l13.82-27.26,13.91,24.99,3.04-5.52-16.89-30.48Z"/>
</svg>