<svg id="Layer_1" data-name="Layer 1" xmlns="http://www.w3.org/2000/svg" viewBox="0 0 70 70"><defs><style>.cls-1{fill:#777;}</style></defs><path class="cls-1" d="M0,16.29c.08-.18.17-.36.24-.54a3.62,3.62,0,0,1,3.18-2.43,3.56,3.56,0,0,1,3.6,1.87.82.82,0,0,0,1,.46,8.9,8.9,0,0,1,8.78,4c1.56,2.29,2.92,4.71,4.49,7,1.33,1.95,2.8,3.8,4.25,5.66a1.63,1.63,0,0,0,1,.54A34.18,34.18,0,0,1,34,34c1.15.4,2.28.86,3.57,1.35.79-1.09,1.65-2.25,2.49-3.43.07-.1,0-.29,0-.43s-.12-.19-.16-.3c-.6-1.47-1.54-2-3.26-2.12A15,15,0,0,1,22.35,16.34c-.37-2.1-.58-4.22-.87-6.33.05,0,.08-.1.12-.1,3.47-.07,7-.23,10.24,1.3a15.6,15.6,0,0,1,6.45,5.4c.08.13.17.24.23.33.23-1.32.36-2.65.71-3.92a12.16,12.16,0,0,1,4.14-6.28C46,4.6,48.65,2.5,51.3.38l.3-.2a3.49,3.49,0,0,1,.2.37c1.35,3,2.77,6,4,9.1,2,4.82,1.12,9.29-2,13.39a1.85,1.85,0,0,0-.36.64l.56-.25a10.52,10.52,0,0,1,12.28,2.24L70,29.32c-2.28,1.8-4.42,3.62-6.7,5.26A9.43,9.43,0,0,1,57.8,36a15.22,15.22,0,0,1-8.95-2.6,2.31,2.31,0,0,0-2.09-.35c-1.77.5-3.56.93-5.34,1.4a.93.93,0,0,0-.51.29c-.47.57-.91,1.18-1.38,1.79.71.54,1.38,1.08,2.08,1.58a.94.94,0,0,0,.51.13,13.19,13.19,0,0,0,8.41-2.08l1.26,1.89a14.83,14.83,0,0,1-7.54,2.47l.83.79c1.06,1,2.12,1.92,3.16,2.9a1,1,0,0,0,1.21.26C51,44,52.58,43.45,54.22,42.9L54.94,45l-3.73,1.27a20.11,20.11,0,0,0,5.86,2.25l-.44,2.18a19.28,19.28,0,0,1-5-1.63,21.26,21.26,0,0,1-5.42-3.63l-5.16-4.76A19.5,19.5,0,0,0,29,35.36a.69.69,0,0,0-.43.12c.18.15.37.29.55.45a48.78,48.78,0,0,0,10.42,7.51A21.3,21.3,0,0,1,47,49.88a1.53,1.53,0,0,0,.62.48c1.93.74,3.86,1.49,5.81,2.18A8.22,8.22,0,0,0,61,51.62l1-.63,1.24,1.86a10.62,10.62,0,0,1-10.11,2c-1.13-.36-2.22-.82-3.32-1.22-.21-.08-.42-.13-.69-.22a2.66,2.66,0,0,0,1.26,1.8,11.18,11.18,0,0,1,4.45,4.59,1,1,0,0,0,.88.62c2.64.25,5.28.53,8,.8v2.08a55.11,55.11,0,0,1-21.87-4.62c.08-.25.14-.49.23-.72.16-.44.33-.88.49-1.31l9.25,3.08.1-.23a9.35,9.35,0,0,0-3.67-2.88,8.8,8.8,0,0,0-1.21-.45,12.87,12.87,0,0,1-5.76-3.5c-.69-.72-1.42-1.4-2.16-2.12l1.66-1.57c1.78,1.59,3.25,3.7,5.84,4.6-.15-.3-.24-.5-.35-.69A17.67,17.67,0,0,0,39,45.77,52.84,52.84,0,0,1,18.59,26.63Q16.87,23.81,15.06,21A6.9,6.9,0,0,0,2.43,23.6a8.25,8.25,0,0,0,1,5.74C6.21,34,8.92,38.66,12.08,43A30.62,30.62,0,0,0,28.55,54.43a37.43,37.43,0,0,1,13.7,7.51C44.66,64,47.13,66,49.63,68.1l-1.44,1.72c-.22-.17-.42-.31-.6-.47L39.93,63a34.76,34.76,0,0,0-12.27-6.45A34.63,34.63,0,0,1,10.73,45.1c-.11-.14-.23-.27-.35-.4l-.16.07c.47,1.26.87,2.54,1.42,3.77a23.44,23.44,0,0,0,7.72,9.7,33.57,33.57,0,0,1,8.78,9.95.5.5,0,0,1,.05.19l-1.83,1.23c-2-3-3.88-6-6.89-8.35l1,4-2.17.58c-.35-1.37-.76-2.69-1-4a8.36,8.36,0,0,0-2.47-4.64A25.42,25.42,0,0,1,7.43,41.85a11.3,11.3,0,0,0-2.24-5.07c-.18,1-.39,1.76-.49,2.58A17.25,17.25,0,0,0,5.92,47.9c.88,2.18,1.62,4.42,2.45,6.63a1.2,1.2,0,0,0,.53.54c1,.52,2,1,3,1.53l-1,2L9,57.68,9.15,61H6.92c-.1-1.07-.17-2.15-.29-3.22a24.63,24.63,0,0,0-2.32-7.87A18.44,18.44,0,0,1,2.39,40.1a37,37,0,0,1,1.08-5.18,1.43,1.43,0,0,0-.15-1.26,19.77,19.77,0,0,1-2.69-5.1C.39,27.71.23,26.84,0,26V23.66c.39-1.13.79-2.25,1.16-3.38a.77.77,0,0,0-.09-.48c-.35-.68-.71-1.34-1.07-2Zm46.26,9a1.25,1.25,0,0,0,.32,0A11.07,11.07,0,0,0,53.7,10.43C53,8.72,52.2,7,51.44,5.33c-.22-.51-.46-1-.73-1.62C48.43,5.58,46.09,7.26,44,9.25c-4,3.91-4.13,10.37-.41,15,.12.15.26.28.53.57.71-2.25,1.39-4.34,2-6.44a.86.86,0,0,0-.23-.68c-.77-.8-1.58-1.57-2.31-2.28l1.7-1.86,1.51,1.9.95-4.62,2.22.47-1.54,7.56,2.28-.89.82,2.1c-1.23.49-2.37.94-3.49,1.42a1.1,1.1,0,0,0-.56.5C47.1,23,46.72,24.12,46.3,25.29Zm-9,1.48c-1-1.3-2-2.61-3-3.9-.08-.1-.36-.09-.54-.05-.9.2-1.79.42-2.73.65l-.54-2.17,2-.55-3.51-3.18c.08-.11.14-.22.22-.33l1.14-1.41a42.17,42.17,0,0,1,8.31,8.91A13,13,0,0,0,24.1,12.26c.5,5.88,1.84,9,5.08,11.67A12,12,0,0,0,37.3,26.77Zm24.07,4.57-9.85.76v.22a3.7,3.7,0,0,0,.33.21,12.74,12.74,0,0,0,8,1c2.8-.54,4.48-2.79,6.73-4.44A34.59,34.59,0,0,0,63,25.92c-3.81-2.56-9.85-1.33-12.75,4.16L51,30c1.28-.16,2.57-.35,3.85-.47a1,1,0,0,0,.94-.62c.37-.84.81-1.65,1.24-2.5l2,1-.89,1.82h3.26ZM49.92,26.52c-1.43.43-3,.89-4.53,1.37a.75.75,0,0,0-.43.26c-.64,1.14-1.25,2.29-1.92,3.52,1.26-.31,2.45-.59,3.62-.89a.92.92,0,0,0,.46-.37C48.1,29.06,49.07,27.7,49.92,26.52ZM41.06,24.6l-.17,0c.38,1.59-.51,3.33.72,4.92.43-.8.83-1.51,1.19-2.24a.64.64,0,0,0,0-.54C42.21,26,41.63,25.33,41.06,24.6ZM5.16,16.43a1.46,1.46,0,0,0-1.5-.84,1.34,1.34,0,0,0-1.25,1,1.37,1.37,0,0,0,.38,1.55Z"/><path class="cls-1" d="M28.23,40.64l.43,2.14a7.74,7.74,0,0,0-5.94,5.94l-2.1-.4C20.61,45.11,24.47,41.2,28.23,40.64Z"/><path class="cls-1" d="M18.44,31.45a9.43,9.43,0,0,0-7.17,5.07l-2-1A11.66,11.66,0,0,1,18,29.23Z"/><path class="cls-1" d="M14.92,42.42a10.66,10.66,0,0,1,7.56-7.51l.55,2.2a8.49,8.49,0,0,0-6,6.15Z"/><path class="cls-1" d="M47.14,64.23l1.26-1.89a21,21,0,0,0,8.68,3.23l-.45,2.2A22.42,22.42,0,0,1,47.14,64.23Z"/><path class="cls-1" d="M26.35,51.45a10.94,10.94,0,0,1,7.5-6.25l.55,2.12a9.34,9.34,0,0,0-6.07,5.1Z"/><path class="cls-1" d="M13.39,22.44l.5,1.95a25,25,0,0,0-3.49,2.09A24.83,24.83,0,0,0,7.66,29.6l-1.74-.87C6.75,26,10,23.3,13.39,22.44Z"/><path class="cls-1" d="M33.15,53.71a8.11,8.11,0,0,1,3.9-3.88l.89,1.77-3,3Z"/></svg>