<svg id="Layer_1" data-name="Layer 1" xmlns="http://www.w3.org/2000/svg" viewBox="0 0 70 70"><defs><style>.cls-1{fill:#777;}</style></defs><path class="cls-1" d="M34.05,70l-3-.41c-3.5-.48-7-1-10.48-1.45-2.13-.3-4.26-.66-6.4-1a.72.72,0,0,0-.56.28,2.48,2.48,0,0,1-2.37,1.32c-1.89,0-3.78,0-5.67,0A2.38,2.38,0,0,1,3,66.24q0-6.9,0-13.8a2.45,2.45,0,0,1,2.7-2.65c1.68,0,3.37,0,5,0a2.78,2.78,0,0,1,3.06,1.84c1-.23,2-.4,3-.68a9.33,9.33,0,0,1,6.33.51L34,56.05a3.66,3.66,0,0,1,2,1.6,11.85,11.85,0,0,1,.6,1.93c.24-.07.59-.17.94-.29l15.74-5.36a5.19,5.19,0,0,1,4.36.11,3,3,0,0,1,1.74,2.52,2.8,2.8,0,0,1-1.6,2.52l-.41.23L45.74,65.49c-2.09,1.11-4.15,2.26-6.28,3.3A31.93,31.93,0,0,1,36.1,70Zm.14-1.6a8.42,8.42,0,0,0,4.47-.94q6.81-3.61,13.64-7.2l4.75-2.53a1.24,1.24,0,0,0,.82-1.16,1.29,1.29,0,0,0-.9-1.1,3.48,3.48,0,0,0-2.65-.19c-1.22.43-2.45.84-3.68,1.25L34,62.12a4.38,4.38,0,0,1-3,.18c-2.61-1-5.19-2.07-7.76-3.17a1,1,0,0,1-.31-.9c.08-.24.51-.41.82-.51.15,0,.37.12.56.19l6.3,2.62a4,4,0,0,0,2.53.23c1.1-.25,1.71-.79,1.78-1.54s-.31-1.22-1.47-1.71c-3.71-1.57-7.39-3.17-11.13-4.67a7.56,7.56,0,0,0-3.17-.58,47.4,47.4,0,0,0-4.68.85c-.48.08-.56.31-.56.74q0,5.53-.05,11.07c0,.48.12.66.63.73,4.82.68,9.63,1.41,14.44,2.09C30.86,68,32.83,68.23,34.19,68.4Zm-22-9h.12v-7a.85.85,0,0,0-1-1H5.56a.82.82,0,0,0-.92.92l0,13.93c0,.62.3,1,.9,1,2,0,3.91,0,5.87,0a.75.75,0,0,0,.82-.86C12.18,64.05,12.19,61.73,12.19,59.41Z"/><path class="cls-1" d="M30.48,12.85h2.13c.77,0,1,.25,1,1,0,2.33,0,4.65,0,7,0,1,0,1,1.11,1.16V4.17c0-1,.22-1.27,1.28-1.27H37.9V1.12C37.91.26,38.15,0,39,0H56.21c.82,0,1.06.24,1.07,1.05,0,.58,0,1.17,0,1.84h2c.9,0,1.13.24,1.13,1.12V22.27l3.27-2.63h-2V18.06H67l-1.24,5-1.5-.38.38-1.77L61.78,23.2q-7.48,6.06-15,12.11c-.8.66-1,.63-1.77-.13q-3-3.13-5.92-6.25a5,5,0,0,1-.38-.54L33.79,33l-12,11.26c-.78.74-.92.74-1.8.07-2.37-1.8-4.76-3.59-7.11-5.42a1,1,0,0,0-1.36-.09c-2.38,1.5-4.8,2.94-7.28,4.44L3.39,42c1.35-.82,2.65-1.65,4-2.41A1.06,1.06,0,0,0,8,38.46q0-12.13,0-24.26c0-1.18.17-1.35,1.33-1.35h1.85c0-.67,0-1.27,0-1.88,0-.78.25-1,1-1s1.76,0,2.71,0c0-.7,0-1.31,0-1.92s.27-1,1-1h9.85c.7,0,.95.28,1,1,0,.59,0,1.18,0,1.89h2.47c1.15,0,1.34.2,1.34,1.36ZM9.6,38.17c.7-.42,1.35-.78,2-1.19a1.08,1.08,0,0,1,1.43.08c1.23,1,2.49,1.91,3.74,2.86L20.83,43l.55-.49q5.1-4.8,10.22-9.58a1.44,1.44,0,0,0,.52-1.18c0-5.51,0-11,0-16.54v-.75H9.6ZM36.38,22.5l.54.18,12.82,3.73c1.14.33,1.22.43,1.22,1.6v1.87l.6-.43c2.26-1.83,4.52-3.67,6.8-5.48a1.18,1.18,0,0,0,.5-1q0-8.89,0-17.77c0-.22,0-.43,0-.65H36.38ZM46,34a15.31,15.31,0,0,1,1.7-1.34,3.11,3.11,0,0,0,1.67-3.55,1.48,1.48,0,0,1,0-.47c.08-.5-.14-.7-.62-.84C44.88,26.64,41,25.5,37.13,24.37c-1.14-.34-2.29-.66-3.42-1V31l4-3.78c.85-.8,1.1-.8,1.89,0ZM55.67,1.61H39.56V2.85H55.67ZM12.74,12.8H28.87V11.52H12.74Zm3.79-3h8.6V8.64h-8.6Z"/><path class="cls-1" d="M38.85,36.35a9.23,9.23,0,0,1-.08,18.46,9.23,9.23,0,1,1,.08-18.46ZM38.6,53.21a7.66,7.66,0,1,0,.11-15.32,7.66,7.66,0,0,0-.11,15.32Z"/><path class="cls-1" d="M22.27,26.63V28.1H19.34V26.63Z"/><path class="cls-1" d="M12.75,26.62h2.92v1.49H12.75Z"/><path class="cls-1" d="M26,28.1V26.57c.9,0,1.78,0,2.65,0,.11,0,.3.2.31.33a11.36,11.36,0,0,1,0,1.18Z"/><path class="cls-1" d="M15.66,19.4H12.74V17.94h2.92Z"/><path class="cls-1" d="M22.27,17.93v1.46H19.33V17.93Z"/><path class="cls-1" d="M26,19.39V18h2.95v1.44Z"/><path class="cls-1" d="M15.67,22.29v1.44H12.74V22.29Z"/><path class="cls-1" d="M19.32,23.73V22.29h2.92v1.44Z"/><path class="cls-1" d="M28.87,23.76H26V22.29h2.89Z"/><path class="cls-1" d="M49.28,8.37c1.49-.29,1.55-.24,1.55,1.17V21.7H49.28Z"/><path class="cls-1" d="M55.17,21.7H53.65V8.33h1.52Z"/><path class="cls-1" d="M44.6,8.32H46V20.2H44.6Z"/><path class="cls-1" d="M40.16,8.33h1.48V18.9H40.16Z"/><path class="cls-1" d="M39.52,50.33c0,.55-.16,1-.76,1s-.78-.5-.9-1c-.44,0-.88,0-1.3,0s-.85-.28-.84-.8a.75.75,0,0,1,.84-.79c.43,0,.86,0,1.33,0V46.41c-1.84-.65-2.26-1.28-2.19-3.25,0-1.21.74-2,2.19-2.34.1-.49.16-1,.85-1s.76.53.82,1.08H41A.77.77,0,0,1,41,42.41c-.47,0-.94,0-1.46,0v2.3c1.79.6,2.23,1.21,2.19,3C41.73,49.18,41.17,49.85,39.52,50.33Zm0-1.62c.86-.38.67-1.06.63-1.62,0-.25-.31-.47-.47-.7l-.16.11ZM37.9,42.46c-.83.37-.58,1-.57,1.52,0,.26.24.51.37.77l.2-.09Z"/></svg>